<?xml version="1.0" standalone="no"?>
<!DOCTYPE svg PUBLIC "-//W3C//DTD SVG 20010904//EN"
 "http://www.w3.org/TR/2001/REC-SVG-20010904/DTD/svg10.dtd">
<svg version="1.0" xmlns="http://www.w3.org/2000/svg"
 width="512.000000pt" height="512.000000pt" viewBox="0 0 512.000000 512.000000"
 preserveAspectRatio="xMidYMid meet">
<metadata>
Created by potrace 1.11, written by Peter Selinger 2001-2013
</metadata>
<g transform="translate(0.000000,512.000000) scale(0.100000,-0.100000)"
fill="#000000" stroke="none">
<path d="M2508 4415 c-2 -2 -32 -6 -68 -10 -104 -11 -229 -41 -336 -80 -136
-51 -204 -89 -368 -205 -49 -35 -173 -171 -218 -240 -119 -181 -169 -345 -169
-555 1 -280 98 -513 296 -708 124 -122 246 -190 625 -347 69 -29 139 -58 157
-66 17 -8 34 -14 37 -14 3 0 25 -9 49 -19 23 -11 77 -33 121 -50 170 -67 269
-130 301 -190 44 -87 11 -214 -71 -270 -92 -63 -293 -82 -481 -47 -160 30
-427 157 -588 280 l-49 38 -31 -35 c-16 -19 -102 -121 -190 -227 -88 -106
-164 -198 -170 -204 -32 -34 -137 -167 -134 -169 2 -2 31 -26 64 -53 178 -150
407 -273 650 -348 85 -27 237 -62 301 -71 22 -2 62 -8 89 -12 67 -10 363 -10
445 0 277 33 555 143 740 293 121 99 252 270 308 406 64 155 77 225 76 423 0
154 -4 192 -23 265 -61 230 -179 393 -385 534 -91 62 -214 118 -526 241 -478
187 -563 225 -618 278 -41 39 -53 67 -57 132 -7 151 126 237 365 237 206 0
367 -50 585 -180 33 -19 71 -44 84 -54 l23 -18 167 209 c91 115 178 224 193
242 14 19 36 45 48 59 60 68 60 68 0 123 -226 204 -533 348 -835 392 -27 4
-61 9 -75 12 -30 5 -328 12 -332 8z"/>
</g>
</svg>
