<svg width="100%" height="100%" viewBox="0 0 20 20" version="1.1" xmlns="http://www.w3.org/2000/svg" xmlns:xlink="http://www.w3.org/1999/xlink" xml:space="preserve" style="fill-rule:evenodd;clip-rule:evenodd;stroke-linejoin:round;stroke-miterlimit:1.41421;"><path d="M11.183,6.339c0,0 1.786,1.965 3.304,3.304c1.473,1.339 1.83,2.678 1.785,3.437c-0.134,4.777 -3.437,6.607 -6.785,6.518c-3.215,-0.089 -4.286,-3.75 -3.884,-7.187c0.446,-3.438 0.401,-8.393 3.75,-11.518c0,0 -0.134,3.393 1.83,5.446l0,0Z" style="fill:url(#_Linear1);fill-rule:nonzero;"/><path d="M12.344,6.473c1.872,1.623 3.928,4.643 3.928,6.652c0,1.92 -3.75,2.902 -6.473,2.902c-2.009,0 -6.027,-0.938 -6.027,-2.456c0,-3.303 0.268,-3.348 1.697,-7.187c0.357,-0.982 -1.206,7.232 4.285,7.009c5.492,-0.223 5.536,-3.348 2.188,-5.893c-1.339,-1.027 -1.116,-1.563 -1.116,-1.563" style="fill:url(#_Linear2);fill-rule:nonzero;"/><path d="M12.79,6.875c0,0 -0.223,1.786 0.223,4.152c0.491,2.411 1.25,7.723 -4.017,8.616c-2.456,-0.045 -3.215,-3.438 -3.215,-3.438c0,0 -1.518,-13.393 4.688,-15.982c0.089,0.982 0.178,2.947 0.893,4.643c0.044,0.045 0.401,0.938 1.428,2.009l0,0Z" style="fill:url(#_Linear3);fill-rule:nonzero;"/><path d="M11.183,4.286c0,0 -0.536,-1.161 -0.714,-4.018c0,0 -1.473,0.223 -3.036,2.634c-1.116,1.696 -2.634,4.553 -3.348,7.098c-0.938,3.348 -0.045,6.473 1.696,7.946c2.098,1.786 4.197,1.92 5.402,0.938c1.071,-0.848 1.786,-1.741 2.009,-3.304l-0.357,0.045c0,0 -0.223,1.116 -1.027,2.098c-0.625,0.759 -2.232,1.831 -3.259,1.34c-1.518,-0.67 -1.473,-2.143 -0.982,-3.349c0.536,-1.339 2.232,-2.41 2.589,-4.375c0.357,-2.098 -0.312,-2.678 -0.134,-4.598c0.134,-1.562 1.161,-2.455 1.161,-2.455l0,0Z" style="fill:url(#_Linear4);fill-rule:nonzero;"/><path d="M8.237,12.411c0,0 -0.045,-1.92 -0.313,-3.348c-0.223,-1.34 -0.803,-3.259 0.134,-4.822c0.938,-1.607 2.5,-2.545 2.5,-2.545c0,0 0.179,1.072 0.446,2.322c0,0 -1.517,1.518 -1.651,3.705c-0.045,1.027 -1.116,4.688 -1.116,4.688l0,0Z" style="fill:url(#_Linear5);fill-rule:nonzero;"/><path d="M8.371,12.321c0,0 0.267,-2.678 0.625,-4.151c0.446,-1.831 0.803,-3.393 2.098,-4.152" style="fill:url(#_Linear6);fill-rule:nonzero;"/><path d="M9.397,19.196c0,0 0.804,-0.312 -0.446,-0.535c-1.25,-0.224 -0.804,-0.134 -0.804,-0.134l-0.401,-0.045c0,0 -0.938,-0.893 -0.134,-2.723c1.384,0.312 3.08,0.402 5.134,-0.089c0,0.625 -0.447,1.428 -0.715,1.785c-0.446,0.625 -0.759,0.849 -1.25,1.161c-0.535,0.313 -0.982,0.491 -1.384,0.58l0,0Z" style="fill:url(#_Linear7);fill-rule:nonzero;"/><path d="M15.335,16.652c0,0 -2.366,0.848 -6.027,-4.107c-3.616,-4.956 -2.679,-6.92 -2.589,-7.188c0,0 -0.982,3.393 -0.982,4.866c0,1.116 5.446,10.313 8.705,7.634c0.268,-0.268 0.714,-0.893 0.893,-1.205Z" style="fill:url(#_Linear8);fill-rule:nonzero;"/><defs><linearGradient id="_Linear1" x1="0" y1="0" x2="1" y2="0" gradientUnits="userSpaceOnUse" gradientTransform="matrix(9.36252,-12.3248,12.3248,9.36252,5.65281,17.5235)"><stop offset="0%" style="stop-color:#231f20;stop-opacity:0"/><stop offset="7%" style="stop-color:#231f20;stop-opacity:0"/><stop offset="100%" style="stop-color:#400161;stop-opacity:1"/></linearGradient><linearGradient id="_Linear2" x1="0" y1="0" x2="1" y2="0" gradientUnits="userSpaceOnUse" gradientTransform="matrix(0.362275,14.7557,-14.7557,0.362275,9.77513,2.80451)"><stop offset="0%" style="stop-color:#231f20;stop-opacity:0"/><stop offset="7%" style="stop-color:#231f20;stop-opacity:0"/><stop offset="100%" style="stop-color:#400161;stop-opacity:1"/></linearGradient><linearGradient id="_Linear3" x1="0" y1="0" x2="1" y2="0" gradientUnits="userSpaceOnUse" gradientTransform="matrix(10.184,-13.4062,13.4062,10.184,4.82145,17.0747)"><stop offset="0%" style="stop-color:#231f20;stop-opacity:0"/><stop offset="7%" style="stop-color:#231f20;stop-opacity:0"/><stop offset="100%" style="stop-color:#400161;stop-opacity:1"/></linearGradient><linearGradient id="_Linear4" x1="0" y1="0" x2="1" y2="0" gradientUnits="userSpaceOnUse" gradientTransform="matrix(-12.6414,7.89711,-7.89711,-12.6414,15.3313,6.66248)"><stop offset="0%" style="stop-color:#231f20;stop-opacity:0"/><stop offset="7%" style="stop-color:#231f20;stop-opacity:0"/><stop offset="100%" style="stop-color:#400161;stop-opacity:1"/></linearGradient><linearGradient id="_Linear5" x1="0" y1="0" x2="1" y2="0" gradientUnits="userSpaceOnUse" gradientTransform="matrix(5.19688,2.06296,-2.06296,5.19688,4.8593,5.23434)"><stop offset="0%" style="stop-color:#231f20;stop-opacity:0"/><stop offset="7%" style="stop-color:#231f20;stop-opacity:0"/><stop offset="100%" style="stop-color:#400161;stop-opacity:1"/></linearGradient><linearGradient id="_Linear6" x1="0" y1="0" x2="1" y2="0" gradientUnits="userSpaceOnUse" gradientTransform="matrix(4.97912,-6.55453,6.55453,4.97912,7.13264,11.3673)"><stop offset="0%" style="stop-color:#231f20;stop-opacity:0"/><stop offset="7%" style="stop-color:#231f20;stop-opacity:0"/><stop offset="100%" style="stop-color:#400161;stop-opacity:1"/></linearGradient><linearGradient id="_Linear7" x1="0" y1="0" x2="1" y2="0" gradientUnits="userSpaceOnUse" gradientTransform="matrix(-5.37179,3.35553,-3.35553,-5.37179,12.6461,14.9921)"><stop offset="0%" style="stop-color:#231f20;stop-opacity:0"/><stop offset="7%" style="stop-color:#231f20;stop-opacity:0"/><stop offset="100%" style="stop-color:#400161;stop-opacity:0.4"/></linearGradient><linearGradient id="_Linear8" x1="0" y1="0" x2="1" y2="0" gradientUnits="userSpaceOnUse" gradientTransform="matrix(-12.578,-17.5531,17.5531,-12.578,16.4054,22.1274)"><stop offset="0%" style="stop-color:#231f20;stop-opacity:0"/><stop offset="7%" style="stop-color:#231f20;stop-opacity:0"/><stop offset="100%" style="stop-color:#400161;stop-opacity:1"/></linearGradient></defs></svg>