<svg width="20" height="20" viewBox="0 0 20 20" xmlns="http://www.w3.org/2000/svg"><title>elixir</title><defs><linearGradient x1="1.213%" y1="88.895%" x2="88.28%" y2="23.015%" id="a"><stop stop-color="#231F20" stop-opacity="0" offset="0%"/><stop stop-color="#231F20" stop-opacity="0" offset="7%"/><stop stop-color="#400161" offset="100%"/></linearGradient><linearGradient x1="48.025%" y1="-31.045%" x2="50.923%" y2="115.195%" id="b"><stop stop-color="#231F20" stop-opacity="0" offset="0%"/><stop stop-color="#231F20" stop-opacity="0" offset="7%"/><stop stop-color="#400161" offset="100%"/></linearGradient><linearGradient x1="-10.276%" y1="86.775%" x2="121.242%" y2="17.742%" id="c"><stop stop-color="#231F20" stop-opacity="0" offset="0%"/><stop stop-color="#231F20" stop-opacity="0" offset="7%"/><stop stop-color="#400161" offset="100%"/></linearGradient><linearGradient x1="122.552%" y1="33.262%" x2="-10.713%" y2="74.341%" id="d"><stop stop-color="#231F20" stop-opacity="0" offset="0%"/><stop stop-color="#231F20" stop-opacity="0" offset="7%"/><stop stop-color="#400161" offset="100%"/></linearGradient><linearGradient x1="-77.453%" y1="33.022%" x2="72.628%" y2="52.275%" id="e"><stop stop-color="#231F20" stop-opacity="0" offset="0%"/><stop stop-color="#231F20" stop-opacity="0" offset="7%"/><stop stop-color="#400161" offset="100%"/></linearGradient><linearGradient x1="-45.478%" y1="88.514%" x2="137.376%" y2="9.572%" id="f"><stop stop-color="#231F20" stop-opacity="0" offset="0%"/><stop stop-color="#231F20" stop-opacity="0" offset="7%"/><stop stop-color="#400161" offset="100%"/></linearGradient><linearGradient x1="98.17%" y1="-19.226%" x2="-.221%" y2="75.94%" id="g"><stop stop-color="#231F20" stop-opacity="0" offset="0%"/><stop stop-color="#231F20" stop-opacity="0" offset="7%"/><stop stop-color="#400161" stop-opacity=".4" offset="100%"/></linearGradient><linearGradient x1="111.152%" y1="129.133%" x2="-19.896%" y2="-6.027%" id="h"><stop stop-color="#231F20" stop-opacity="0" offset="0%"/><stop stop-color="#231F20" stop-opacity="0" offset="7%"/><stop stop-color="#400161" offset="100%"/></linearGradient></defs><g fill="none" fill-rule="evenodd"><path d="M8.183 6.34s1.786 1.964 3.304 3.303c1.473 1.34 1.83 2.678 1.785 3.437-.134 4.777-3.437 6.607-6.785 6.518-3.215-.09-4.286-3.75-3.884-7.187.446-3.437.4-8.392 3.75-11.517 0 0-.134 3.393 1.83 5.446z" fill="url(#a)" transform="translate(3)"/><path d="M9.344 6.473c1.872 1.623 3.928 4.643 3.928 6.652 0 1.92-3.75 2.902-6.473 2.902-2.01 0-6.028-.938-6.028-2.456 0-3.302.268-3.347 1.697-7.186.356-.982-1.207 7.232 4.284 7.01 5.492-.224 5.536-3.35 2.188-5.894-1.34-1.027-1.116-1.563-1.116-1.563" fill="url(#b)" transform="translate(3)"/><path d="M9.79 6.875s-.223 1.786.223 4.152c.49 2.41 1.25 7.723-4.017 8.616-2.456-.045-3.215-3.438-3.215-3.438S1.264 2.812 7.47.223c.088.982.177 2.947.892 4.643.044.045.4.938 1.428 2.01z" fill="url(#c)" transform="translate(3)"/><path d="M8.183 4.286S7.647 3.126 7.47.268c0 0-1.474.223-3.037 2.634C3.317 4.598 1.8 7.455 1.085 10c-.938 3.348-.045 6.473 1.696 7.946 2.1 1.786 4.198 1.92 5.403.938 1.07-.848 1.786-1.74 2.01-3.304l-.358.045s-.223 1.116-1.027 2.098c-.625.76-2.232 1.83-3.26 1.34-1.517-.67-1.472-2.143-.98-3.35.535-1.338 2.23-2.41 2.588-4.374.357-2.1-.312-2.68-.134-4.6.134-1.56 1.16-2.454 1.16-2.454z" fill="url(#d)" transform="translate(3)"/><path d="M5.237 12.41s-.045-1.92-.313-3.347c-.223-1.34-.803-3.26.134-4.822.938-1.606 2.5-2.544 2.5-2.544s.18 1.072.446 2.322c0 0-1.517 1.518-1.65 3.705-.046 1.027-1.117 4.688-1.117 4.688z" fill="url(#e)" transform="translate(3)"/><path d="M5.37 12.32s.268-2.677.626-4.15c.446-1.83.803-3.393 2.098-4.152" fill="url(#f)" transform="translate(3)"/><path d="M6.397 19.196s.804-.312-.446-.535c-1.25-.223-.803-.133-.803-.133l-.4-.045s-.94-.893-.135-2.723c1.384.31 3.08.4 5.134-.09 0 .625-.447 1.428-.715 1.785-.445.625-.758.85-1.25 1.16-.534.314-.98.492-1.383.58z" fill="url(#g)" transform="translate(3)"/><path d="M12.335 16.652s-2.366.848-6.027-4.107c-3.616-4.956-2.68-6.92-2.59-7.188 0 0-.98 3.393-.98 4.866 0 1.116 5.445 10.313 8.704 7.634.268-.268.714-.893.893-1.205z" fill="url(#h)" transform="translate(3)"/></g></svg>
