<svg width="20" height="20" viewBox="0 0 20 20" xmlns="http://www.w3.org/2000/svg"><title>email</title><path d="M12.656 8.424c0-.937-.232-1.67-.696-2.2-.465-.53-1.105-.794-1.92-.794-.548 0-1.086.132-1.616.397s-1.006.63-1.432 1.1c-.425.47-.77 1.063-1.035 1.784-.265.72-.397 1.503-.397 2.345 0 .972.232 1.723.697 2.252.464.53 1.117.795 1.96.795.832 0 1.596-.29 2.29-.866.695-.578 1.227-1.298 1.596-2.162.37-.863.553-1.747.553-2.65zM20 10c0 .964-.16 1.82-.482 2.565-.32.747-.748 1.333-1.282 1.758-.534.425-1.105.75-1.713.97-.607.22-1.237.34-1.888.358-.052 0-.12.003-.2.008-.084.004-.155.006-.216.006-.826 0-1.442-.23-1.85-.69-.243-.287-.386-.647-.43-1.08-.45.572-1.022 1.05-1.712 1.432-.69.38-1.443.572-2.26.572-1.397 0-2.48-.414-3.248-1.243-.768-.83-1.152-2-1.152-3.51 0-1.362.286-2.62.86-3.775.572-1.155 1.35-2.068 2.33-2.74.98-.674 2.048-1.01 3.203-1.01.756 0 1.43.154 2.02.462.59.308 1.05.74 1.38 1.296l.025-.248.144-.73c.007-.05.03-.103.07-.155.04-.052.08-.078.124-.078h1.536c.044 0 .1.047.17.143.043.043.056.113.04.208l-1.564 7.995c-.043.208-.065.417-.065.625 0 .34.055.564.164.677.108.113.302.17.58.17.242-.01.49-.033.742-.072.25-.04.568-.143.95-.313s.716-.386 1.003-.65c.285-.266.532-.654.74-1.166.21-.512.313-1.107.313-1.784 0-2.535-.755-4.557-2.265-6.068-1.51-1.51-3.533-2.265-6.068-2.265-1.128 0-2.207.22-3.236.664-1.028.443-1.914 1.036-2.656 1.778-.742.742-1.335 1.628-1.777 2.656-.442 1.03-.663 2.108-.663 3.236 0 1.128.22 2.207.664 3.236.443 1.028 1.036 1.914 1.778 2.656.742.742 1.628 1.335 2.656 1.777 1.03.442 2.108.663 3.236.663 1.98 0 3.737-.625 5.273-1.875.096-.078.2-.113.313-.104.113.01.204.06.273.156l.533.638c.07.105.1.21.09.313-.016.114-.068.21-.155.287-.885.72-1.873 1.276-2.962 1.667-1.09.39-2.21.586-3.366.586-1.354 0-2.648-.265-3.88-.794-1.233-.53-2.296-1.242-3.19-2.136-.894-.894-1.606-1.957-2.136-3.19C.264 12.648 0 11.354 0 10s.265-2.648.794-3.88c.53-1.233 1.242-2.296 2.136-3.19.894-.894 1.957-1.606 3.19-2.136C7.352.264 8.646 0 10 0c2.986 0 5.4.92 7.24 2.76C19.08 4.6 20 7.014 20 10z" fill="#4D4D4D" fill-rule="evenodd"/></svg>
