<?xml version="1.0" encoding="UTF-8"?>
<svg width="20px" height="20px" viewBox="0 0 20 20" version="1.1" xmlns="http://www.w3.org/2000/svg" xmlns:xlink="http://www.w3.org/1999/xlink" xmlns:sketch="http://www.bohemiancoding.com/sketch/ns">
    <!-- Generator: Sketch 3.4.2 (15855) - http://www.bohemiancoding.com/sketch -->
    <title>github</title>
    <desc>Created with Sketch.</desc>
    <defs></defs>
    <g id="Page-1" stroke="none" stroke-width="1" fill="none" fill-rule="evenodd" sketch:type="MSPage">
        <g id="github" sketch:type="MSArtboardGroup" fill="#000000">
            <path d="M20,10.2504514 C20,12.4838397 19.3641493,14.4925545 18.0924479,16.2765957 C16.8207465,18.060637 15.1779514,19.2952291 13.1640625,19.9803721 C12.9296875,20.024862 12.7582465,19.9937191 12.6497396,19.8869436 C12.5412326,19.780168 12.4869792,19.6466986 12.4869792,19.4865353 L12.4869792,16.6703305 C12.4869792,15.8072283 12.2612847,15.175473 11.8098958,14.7750648 C12.3046875,14.721677 12.749566,14.6415954 13.1445312,14.5348198 C13.5394965,14.4280443 13.9474826,14.254534 14.3684896,14.0142891 C14.7894965,13.7740441 15.141059,13.4781869 15.4231771,13.1267174 C15.7052951,12.775248 15.9353299,12.308105 16.1132812,11.7252885 C16.2912326,11.1424721 16.3802083,10.4729005 16.3802083,9.71657376 C16.3802083,8.63992044 16.0373264,7.72343043 15.3515625,6.96710371 C15.6727431,6.15738923 15.6380208,5.24979718 15.2473958,4.24432755 C15.0043403,4.1642459 14.6527778,4.21318469 14.1927083,4.39114391 C13.7326389,4.56910314 13.3333333,4.76485829 12.9947917,4.97840936 L12.5,5.29873597 C11.6927083,5.06738897 10.859375,4.95171547 10,4.95171547 C9.140625,4.95171547 8.30729167,5.06738897 7.5,5.29873597 C7.36111111,5.20085839 7.17664931,5.08073591 6.94661458,4.93836853 C6.71657986,4.79600115 6.35416667,4.6247154 5.859375,4.42451127 C5.36458333,4.22430714 4.99131944,4.1642459 4.73958333,4.24432755 C4.35763889,5.24979718 4.32725694,6.15738923 4.6484375,6.96710371 C3.96267361,7.72343043 3.61979167,8.63992044 3.61979167,9.71657376 C3.61979167,10.4729005 3.70876736,11.1402476 3.88671875,11.7186151 C4.06467014,12.2969825 4.29253472,12.7641255 4.5703125,13.120044 C4.84809028,13.4759624 5.19748264,13.7740441 5.61848958,14.0142891 C6.03949653,14.254534 6.44748264,14.4280443 6.84244792,14.5348198 C7.23741319,14.6415954 7.68229167,14.721677 8.17708333,14.7750648 C7.82986111,15.0953914 7.6171875,15.5536364 7.5390625,16.1497998 C7.35677083,16.2387794 7.16145833,16.3055141 6.953125,16.3500039 C6.74479167,16.3944937 6.49739583,16.4167386 6.2109375,16.4167386 C5.92447917,16.4167386 5.64019097,16.3210856 5.35807292,16.1297794 C5.07595486,15.9384732 4.83506944,15.6604119 4.63541667,15.2955955 C4.47048611,15.0108607 4.25998264,14.7795138 4.00390625,14.6015545 C3.74782986,14.4235953 3.53298611,14.3168198 3.359375,14.2812279 L3.09895833,14.2411871 C2.91666667,14.2411871 2.79079861,14.2612075 2.72135417,14.3012483 C2.65190972,14.3412892 2.63020833,14.3924524 2.65625,14.4547382 C2.68229167,14.5170239 2.72135417,14.5793096 2.7734375,14.6415954 C2.82552083,14.7038811 2.88194444,14.7572688 2.94270833,14.8017587 L3.03385417,14.8684934 C3.22482639,14.957473 3.41362847,15.1265342 3.60026042,15.3756772 C3.78689236,15.6248201 3.92361111,15.8517181 4.01041667,16.0563712 L4.140625,16.3633509 C4.25347222,16.7014734 4.44444444,16.9750857 4.71354167,17.1841878 C4.98263889,17.3932899 5.2734375,17.5267593 5.5859375,17.5845961 C5.8984375,17.6424328 6.20008681,17.6735757 6.49088542,17.6780247 C6.78168403,17.6824736 7.02256944,17.6669022 7.21354167,17.6313104 L7.51302083,17.5779226 C7.51302083,17.9160451 7.51519097,18.3120044 7.51953125,18.7658004 C7.52387153,19.2195965 7.52604167,19.4598414 7.52604167,19.4865353 C7.52604167,19.6466986 7.46961806,19.780168 7.35677083,19.8869436 C7.24392361,19.9937191 7.0703125,20.024862 6.8359375,19.9803721 C4.82204861,19.2952291 3.17925347,18.060637 1.90755208,16.2765957 C0.635850694,14.4925545 0,12.4838397 0,10.2504514 C0,8.39077752 0.447048611,6.67569548 1.34114583,5.10520531 C2.23524306,3.53471513 3.44835069,2.29122504 4.98046875,1.37473502 C6.51258681,0.458245008 8.18576389,0 10,0 C11.8142361,0 13.4874132,0.458245008 15.0195312,1.37473502 C16.5516493,2.29122504 17.7647569,3.53471513 18.6588542,5.10520531 C19.5529514,6.67569548 20,8.39077752 20,10.2504514 L20,10.2504514 Z" sketch:type="MSShapeGroup"></path>
        </g>
    </g>
</svg>