<svg width="20" height="20" viewBox="0 0 20 20" xmlns="http://www.w3.org/2000/svg"><title>github</title><path d="M20 10.25c0 2.234-.636 4.243-1.908 6.027-1.27 1.784-2.914 3.018-4.928 3.703-.234.045-.406.014-.514-.093-.11-.107-.163-.24-.163-.4V16.67c0-.863-.226-1.495-.677-1.895.495-.053.94-.133 1.335-.24.394-.107.802-.28 1.223-.52.42-.24.773-.537 1.055-.888.282-.352.512-.82.69-1.402.178-.583.267-1.252.267-2.008 0-1.077-.343-1.994-1.028-2.75.32-.81.286-1.717-.105-2.723-.243-.08-.594-.03-1.054.147-.46.18-.86.375-1.198.588l-.495.32c-.807-.23-1.64-.346-2.5-.346-.86 0-1.693.115-2.5.347-.14-.1-.323-.22-.553-.362-.23-.142-.593-.313-1.088-.513-.495-.2-.87-.26-1.12-.18-.382 1.005-.413 1.912-.092 2.722-.685.756-1.028 1.673-1.028 2.75 0 .756.09 1.423.267 2.002.178.577.406 1.044.683 1.4.278.356.627.654 1.048.894.42.24.83.414 1.224.52.395.108.84.188 1.335.24-.347.32-.56.78-.638 1.376-.183.09-.38.156-.587.2-.208.044-.456.067-.742.067s-.57-.096-.852-.287c-.282-.192-.523-.47-.723-.834-.165-.285-.375-.516-.63-.694-.257-.178-.472-.285-.646-.32l-.26-.04c-.183 0-.31.02-.38.06-.068.04-.09.09-.064.153.026.062.065.124.117.187.053.062.11.115.17.16l.09.066c.192.09.38.26.567.508.187.25.324.476.41.68l.13.307c.113.338.304.612.574.82.27.21.56.344.872.402.312.057.614.09.905.093.292.004.533-.01.724-.047l.3-.052c0 .338 0 .734.006 1.188l.006.72c0 .16-.056.294-.17.4-.112.108-.286.14-.52.094-2.014-.685-3.657-1.92-4.928-3.703C.636 14.493 0 12.484 0 10.25c0-1.86.447-3.574 1.34-5.145.895-1.57 2.108-2.814 3.64-3.73C6.513.458 8.186 0 10 0c1.814 0 3.487.458 5.02 1.375 1.532.916 2.745 2.16 3.64 3.73C19.552 6.675 20 8.39 20 10.25z" fill="#4D4D4D" fill-rule="evenodd"/></svg>
