<svg width="20" height="20" viewBox="0 0 20 20" xmlns="http://www.w3.org/2000/svg"><title>javascript</title><g fill="none" fill-rule="evenodd"><path fill="#F7DF1E" d="M0 0h20v20H0z"/><path d="M13.435 15.625c.403.658.927 1.14 1.854 1.14.778 0 1.275-.388 1.275-.926 0-.645-.51-.873-1.368-1.248l-.47-.202c-1.356-.578-2.257-1.3-2.257-2.832 0-1.41 1.074-2.482 2.752-2.482 1.195 0 2.054.416 2.673 1.505l-1.463.94c-.322-.577-.67-.805-1.21-.805-.55 0-.9.35-.9.805 0 .564.35.792 1.156 1.142l.47.2c1.597.686 2.5 1.384 2.5 2.953 0 1.692-1.33 2.62-3.116 2.62-1.745 0-2.873-.832-3.424-1.923l1.527-.887zm-6.64.163c.296.524.565.967 1.21.967.618 0 1.007-.242 1.007-1.18V9.182h1.88V15.6c0 1.945-1.14 2.83-2.807 2.83-1.504 0-2.376-.778-2.82-1.716l1.53-.926z" fill="#000"/></g></svg>
