<svg width="100%" height="100%" viewBox="0 0 20 20" version="1.1" xmlns="http://www.w3.org/2000/svg" xmlns:xlink="http://www.w3.org/1999/xlink" xml:space="preserve" style="fill-rule:evenodd;clip-rule:evenodd;stroke-linejoin:round;stroke-miterlimit:1.41421;"><g><path d="M12.535,16.25c0.156,0.226 0.251,0.208 0.373,0.156c0.121,-0.052 6.372,-2.161 6.562,-2.231c0.191,-0.069 0.131,-0.13 0.07,-0.225c-0.061,-0.096 -2.144,-2.926 -2.248,-3.091c-0.105,-0.165 -0.157,-0.13 -0.322,-0.078l-6.625,1.724c0,0 2.034,3.519 2.19,3.745Zm7.465,-2.882l0,-3.312c-0.745,0.199 -1.688,0.45 -2.06,0.549c0.561,0.751 1.439,1.927 2.06,2.763Zm-2.067,-6.843c-0.102,0.023 -2.363,0.432 -2.502,0.45c-0.139,0.019 -0.093,0.098 -0.037,0.177l1.989,2.73c0,0 2.433,-0.604 2.582,-0.636c0.012,-0.003 0.024,-0.006 0.035,-0.009l0,-0.361c-0.442,-0.561 -1.647,-2.087 -1.751,-2.23c-0.125,-0.172 -0.214,-0.144 -0.316,-0.121l0,0Z" style="fill:#f35045;fill-rule:nonzero;"/><path d="M3.708,2.237c0.489,-0.022 0.534,0.089 0.749,0.408l5.404,9.035l6.795,-1.628c-0.377,-0.534 -2.086,-2.957 -2.251,-3.188c-0.186,-0.26 0.005,-0.381 0.306,-0.432c0.302,-0.051 2.902,-0.487 3.125,-0.52c0.223,-0.032 0.399,-0.111 0.761,0.325c0.185,0.224 0.814,1.006 1.403,1.739l0,-4.226c0,-1.033 -0.367,-1.916 -1.1,-2.65c-0.734,-0.733 -1.617,-1.1 -2.65,-1.1l-12.5,0c-1.033,0 -1.916,0.367 -2.65,1.1c-0.42,0.421 -0.72,0.891 -0.899,1.41c1.225,-0.1 3.164,-0.257 3.507,-0.273l0,0Z" style="fill:#f35045;fill-rule:nonzero;"/><path d="M13.148,17.466c-0.573,0.174 -0.83,0.26 -1.204,-0.261c-0.279,-0.39 -1.791,-3.113 -2.532,-4.455c-1.403,0.367 -3.97,1.037 -4.71,1.215c-0.723,0.174 -1.031,-0.259 -1.15,-0.526c-0.083,-0.188 -2.201,-4.755 -3.552,-7.685l0,10.496c0,1.033 0.367,1.916 1.1,2.65c0.734,0.733 1.617,1.1 2.65,1.1l12.5,0c1.033,0 1.916,-0.367 2.65,-1.1c0.733,-0.734 1.1,-1.617 1.1,-2.65l0,-1.233c-1.534,0.561 -6.466,2.332 -6.852,2.449Z" style="fill:#f35045;fill-rule:nonzero;"/><path d="M4.72,12.913c0.203,-0.046 4.009,-0.957 4.09,-0.975c0.081,-0.017 0.133,-0.063 0.046,-0.214c-0.087,-0.151 -5.073,-8.757 -5.073,-8.757c-0.046,-0.079 -0.033,-0.106 -0.158,-0.099c-0.111,0.006 -2.932,0.258 -3.586,0.312c-0.019,0.138 -0.031,0.277 -0.036,0.417c0.663,1.357 4.469,9.206 4.49,9.27c0.024,0.069 0.024,0.093 0.227,0.046l0,0Z" style="fill:#f35045;fill-rule:nonzero;"/></g></svg>