<?xml version="1.0" encoding="UTF-8"?>
<svg width="20px" height="20px" viewBox="0 0 20 20" version="1.1" xmlns="http://www.w3.org/2000/svg" xmlns:xlink="http://www.w3.org/1999/xlink" xmlns:sketch="http://www.bohemiancoding.com/sketch/ns">
    <!-- Generator: Sketch 3.4.2 (15855) - http://www.bohemiancoding.com/sketch -->
    <title>laravel</title>
    <desc>Created with Sketch.</desc>
    <defs></defs>
    <g id="Page-1" stroke="none" stroke-width="1" fill="none" fill-rule="evenodd" sketch:type="MSPage">
        <g id="laravel" sketch:type="MSArtboardGroup" fill="#F35045">
            <path d="M12.535,16.25 C12.691,16.476 12.786,16.458 12.908,16.406 C13.029,16.354 19.28,14.245 19.47,14.175 C19.661,14.106 19.601,14.045 19.54,13.95 C19.479,13.854 17.396,11.024 17.292,10.859 C17.187,10.694 17.135,10.729 16.97,10.781 L10.345,12.505 C10.345,12.505 12.379,16.024 12.535,16.25 L12.535,16.25 Z M20,13.368 L20,10.056 C19.255,10.255 18.312,10.506 17.94,10.605 C18.501,11.356 19.379,12.532 20,13.368 L20,13.368 Z M17.933,6.525 C17.831,6.548 15.57,6.957 15.431,6.975 C15.292,6.994 15.338,7.073 15.394,7.152 L17.383,9.882 C17.383,9.882 19.816,9.278 19.965,9.246 C19.977,9.243 19.989,9.24 20,9.237 L20,8.876 C19.558,8.315 18.353,6.789 18.249,6.646 C18.124,6.474 18.035,6.502 17.933,6.525 L17.933,6.525 Z M4.457,2.645 L9.861,11.68 L16.656,10.052 C16.279,9.518 14.57,7.095 14.405,6.864 C14.219,6.604 14.41,6.483 14.711,6.432 C15.013,6.381 17.613,5.945 17.836,5.912 C18.059,5.88 18.235,5.801 18.597,6.237 C18.782,6.461 19.411,7.243 20,7.976 L20,-4.60742555e-15 L-5.00679728e-09,-4.60742555e-15 L-5.00679728e-09,2.64499998 C1.27856445,2.48937988 3.365,2.253 3.708,2.237 C4.197,2.215 4.242,2.326 4.457,2.645 Z M11.944,17.205 C11.665,16.815 10.153,14.092 9.412,12.75 C8.009,13.117 5.442,13.787 4.702,13.965 C3.979,14.139 3.671,13.706 3.552,13.439 C3.469,13.251 1.351,8.684 -5.27355937e-16,5.754 L-5.27355937e-16,20.0000003 L20,20.0000003 L20,15.017 C18.466,15.578 13.534,17.349 13.148,17.466 C12.575,17.64 12.318,17.726 11.944,17.205 Z M4.72,12.913 C4.923,12.867 8.729,11.956 8.81,11.938 C8.891,11.921 8.943,11.875 8.856,11.724 C8.769,11.573 3.783,2.967 3.783,2.967 C3.737,2.888 3.75,2.861 3.625,2.868 C3.514,2.874 0.693,3.126 0.039,3.18 C0.02,3.318 0.008,3.457 0.003,3.597 C0.666,4.954 4.472,12.803 4.493,12.867 C4.517,12.936 4.517,12.96 4.72,12.913 L4.72,12.913 Z" sketch:type="MSShapeGroup"></path>
        </g>
    </g>
</svg>