<svg width="20" height="20" viewBox="0 0 20 20" xmlns="http://www.w3.org/2000/svg"><title>laravel</title><path d="M12.535 16.25c.156.226.25.208.373.156.12-.052 6.372-2.16 6.562-2.23.19-.07.13-.13.07-.226s-2.144-2.926-2.248-3.09c-.105-.166-.157-.13-.322-.08l-6.625 1.725s2.034 3.52 2.19 3.745zM20 13.368v-3.312c-.745.2-1.688.45-2.06.55.56.75 1.44 1.926 2.06 2.762zm-2.067-6.843c-.102.023-2.363.432-2.502.45-.138.02-.092.098-.036.177l1.99 2.73s2.432-.604 2.58-.636l.036-.01v-.36c-.442-.56-1.647-2.087-1.75-2.23-.126-.172-.215-.144-.317-.12zM4.457 2.645L9.86 11.68l6.796-1.628-2.25-3.188c-.187-.26.004-.38.305-.432.303-.05 2.903-.487 3.126-.52.223-.032.4-.11.76.325.186.224.815 1.006 1.404 1.74V0H0v2.645c1.28-.156 3.365-.392 3.708-.408.49-.022.534.09.75.408zm7.487 14.56c-.28-.39-1.79-3.113-2.532-4.455-1.403.367-3.97 1.037-4.71 1.215-.723.174-1.03-.26-1.15-.526-.083-.19-2.2-4.756-3.552-7.686V20h20v-4.983c-1.534.56-6.466 2.332-6.852 2.45-.573.173-.83.26-1.204-.262zM4.72 12.913c.203-.046 4.01-.957 4.09-.975.08-.017.133-.063.046-.214L3.783 2.967c-.046-.08-.033-.106-.158-.1-.11.007-2.932.26-3.586.313-.02.138-.032.277-.037.417.663 1.357 4.47 9.206 4.49 9.27.024.07.024.093.227.046z" fill="#F35045" fill-rule="evenodd"/></svg>
