<?xml version="1.0" standalone="no"?><!DOCTYPE svg PUBLIC "-//W3C//DTD SVG 1.1//EN" "http://www.w3.org/Graphics/SVG/1.1/DTD/svg11.dtd"><svg width="100%" height="100%" viewBox="0 0 100 40" version="1.1" xmlns="http://www.w3.org/2000/svg" xmlns:xlink="http://www.w3.org/1999/xlink" xml:space="preserve" style="fill-rule:evenodd;clip-rule:evenodd;stroke-linejoin:round;stroke-miterlimit:1.41421;"><path d="M6.144,26.942c1.289,1.031 2.679,1.869 4.17,2.513c1.491,0.645 2.9,0.967 4.226,0.967c1.436,0 2.476,-0.221 3.12,-0.663c0.645,-0.442 0.967,-1.068 0.967,-1.878c0,-0.442 -0.111,-0.81 -0.332,-1.105c-0.22,-0.294 -0.543,-0.57 -0.966,-0.828c-0.424,-0.258 -0.93,-0.506 -1.519,-0.746c-0.589,-0.239 -1.27,-0.506 -2.044,-0.801l-4.474,-1.878c-0.957,-0.368 -1.878,-0.856 -2.761,-1.463c-0.884,-0.608 -1.657,-1.326 -2.32,-2.154c-0.663,-0.829 -1.188,-1.777 -1.574,-2.845c-0.387,-1.068 -0.58,-2.246 -0.58,-3.535c0,-1.547 0.331,-2.992 0.994,-4.336c0.663,-1.344 1.583,-2.522 2.761,-3.535c1.179,-1.013 2.587,-1.813 4.226,-2.403c1.639,-0.589 3.434,-0.883 5.385,-0.883c2.062,0 4.152,0.386 6.269,1.16c2.118,0.773 4.005,1.988 5.662,3.645l-4.75,5.965c-1.215,-0.847 -2.385,-1.491 -3.508,-1.933c-1.123,-0.442 -2.347,-0.663 -3.673,-0.663c-1.178,0 -2.099,0.203 -2.761,0.608c-0.663,0.405 -0.995,1.013 -0.995,1.823c0,0.847 0.47,1.5 1.409,1.96c0.939,0.461 2.237,1.004 3.894,1.63l4.363,1.712c2.247,0.884 3.977,2.117 5.192,3.701c1.216,1.583 1.823,3.627 1.823,6.131c0,1.51 -0.313,2.964 -0.939,4.363c-0.626,1.4 -1.537,2.624 -2.734,3.673c-1.197,1.05 -2.66,1.888 -4.391,2.514c-1.731,0.626 -3.719,0.939 -5.965,0.939c-2.283,0 -4.631,-0.415 -7.043,-1.243c-2.412,-0.829 -4.593,-2.127 -6.545,-3.894l5.413,-6.518Z" style="fill:#d66056;fill-rule:nonzero;"/><path d="M34.092,2.031l10.605,0c2.725,0 5.22,0.332 7.485,0.995c2.264,0.662 4.207,1.712 5.827,3.148c1.62,1.436 2.881,3.277 3.784,5.523c0.902,2.247 1.353,4.953 1.353,8.12c0,3.167 -0.442,5.892 -1.326,8.175c-0.884,2.283 -2.126,4.161 -3.728,5.634c-1.602,1.472 -3.498,2.559 -5.689,3.258c-2.191,0.7 -4.576,1.05 -7.153,1.05l-11.158,0l0,-35.903ZM44.145,30.311c1.289,0 2.504,-0.156 3.646,-0.469c1.141,-0.313 2.126,-0.856 2.955,-1.629c0.828,-0.774 1.482,-1.842 1.96,-3.204c0.479,-1.362 0.719,-3.093 0.719,-5.192c0,-2.099 -0.24,-3.811 -0.719,-5.137c-0.478,-1.325 -1.132,-2.357 -1.96,-3.093c-0.829,-0.736 -1.814,-1.243 -2.955,-1.519c-1.142,-0.276 -2.357,-0.414 -3.646,-0.414l-0.552,0l0,20.657l0.552,0Z" style="fill:#d66056;fill-rule:nonzero;"/><path d="M69.553,2.031l10.605,0c2.725,0 5.22,0.332 7.484,0.995c2.265,0.662 4.207,1.712 5.827,3.148c1.621,1.436 2.882,3.277 3.784,5.523c0.902,2.247 1.353,4.953 1.353,8.12c0,3.167 -0.442,5.892 -1.325,8.175c-0.884,2.283 -2.127,4.161 -3.729,5.634c-1.601,1.472 -3.498,2.559 -5.689,3.258c-2.191,0.7 -4.575,1.05 -7.153,1.05l-11.157,0l0,-35.903ZM79.606,30.311c1.288,0 2.504,-0.156 3.645,-0.469c1.142,-0.313 2.127,-0.856 2.955,-1.629c0.829,-0.774 1.482,-1.842 1.961,-3.204c0.479,-1.362 0.718,-3.093 0.718,-5.192c0,-2.099 -0.239,-3.811 -0.718,-5.137c-0.479,-1.325 -1.132,-2.357 -1.961,-3.093c-0.828,-0.736 -1.813,-1.243 -2.955,-1.519c-1.141,-0.276 -2.357,-0.414 -3.645,-0.414l-0.553,0l0,20.657l0.553,0Z" style="fill:#d66056;fill-rule:nonzero;"/></svg>