<?xml version="1.0" encoding="UTF-8"?>
<svg width="20px" height="20px" viewBox="0 0 20 20" version="1.1" xmlns="http://www.w3.org/2000/svg" xmlns:xlink="http://www.w3.org/1999/xlink" xmlns:sketch="http://www.bohemiancoding.com/sketch/ns">
    <!-- Generator: Sketch 3.4.2 (15855) - http://www.bohemiancoding.com/sketch -->
    <title>php</title>
    <desc>Created with Sketch.</desc>
    <defs></defs>
    <g id="Page-1" stroke="none" stroke-width="1" fill="none" fill-rule="evenodd" sketch:type="MSPage">
        <g id="php" sketch:type="MSArtboardGroup" fill="#8892BF">
            <path d="M0,0 L20,0 L20,20 L0,20 L0,0 Z M3.2664,7.6824 L5.6392,7.6824 C6.3352,7.6888 6.84,7.888 7.1528,8.2816 C7.4656,8.6752 7.5688,9.2128 7.4624,9.8944 C7.4216,10.2056 7.3296,10.5104 7.188,10.8104 C7.0528,11.1096 6.864,11.38 6.6216,11.6208 C6.3264,11.9264 6.0104,12.12 5.6744,12.2024 C5.3376,12.2848 4.9896,12.3256 4.6296,12.3256 L3.5672,12.3256 L3.2304,14 L2,14 L3.2664,7.6824 Z M8.8648,6 L10.0864,6 L9.7416,7.6832 L10.8392,7.6832 C11.4416,7.6952 11.8896,7.8184 12.1848,8.0528 C12.4864,8.288 12.5744,8.7344 12.4504,9.392 L11.8576,12.3264 L10.6184,12.3264 L11.1848,9.5248 C11.244,9.2312 11.2256,9.0224 11.1312,8.8992 C11.0368,8.776 10.8336,8.7136 10.5208,8.7136 L9.5376,8.7048 L8.812,12.3264 L7.5904,12.3264 L8.8648,6 Z M13.7632,7.6824 L16.136,7.6824 C16.832,7.6888 17.3368,7.888 17.6496,8.2816 C17.9624,8.6752 18.0656,9.2128 17.9592,9.8944 C17.9184,10.2056 17.8264,10.5104 17.6848,10.8104 C17.5496,11.1096 17.3608,11.38 17.1184,11.6208 C16.8232,11.9264 16.5072,12.12 16.1712,12.2024 C15.8344,12.2848 15.4864,12.3256 15.1264,12.3256 L14.064,12.3256 L13.7272,14 L12.4968,14 L13.7632,7.6824 Z M4.3016,8.6872 L3.7704,11.3304 C3.8064,11.336 3.8416,11.3392 3.8768,11.3392 L4.0008,11.3392 C4.5672,11.3448 5.04,11.2888 5.4176,11.1712 C5.7952,11.048 6.0488,10.6192 6.1792,9.8856 C6.2848,9.2688 6.1792,8.9128 5.86,8.8192 C5.5472,8.7248 5.1552,8.6808 4.6824,8.6872 C4.612,8.6928 4.544,8.696 4.4792,8.696 L4.2928,8.696 L4.3016,8.6872 Z M14.7992,8.6872 L14.2672,11.3304 C14.3032,11.336 14.3384,11.3392 14.3736,11.3392 L14.4976,11.3392 C15.0648,11.3448 15.5368,11.2888 15.9144,11.1712 C16.292,11.048 16.5456,10.6192 16.676,9.8856 C16.7824,9.2688 16.676,8.9128 16.3568,8.8192 C16.044,8.7248 15.652,8.6808 15.1792,8.6872 C15.1088,8.6928 15.0408,8.696 14.976,8.696 L14.7896,8.696 L14.7992,8.6872 Z" sketch:type="MSShapeGroup"></path>
        </g>
    </g>
</svg>