<svg width="20" height="20" viewBox="0 0 20 20" xmlns="http://www.w3.org/2000/svg"><title>php</title><path d="M0 0h20v20H0V0zm3.266 7.682H5.64c.695.007 1.2.206 1.513.6.313.393.416.93.31 1.612-.04.312-.133.616-.275.916-.135.3-.324.57-.566.81-.296.306-.612.5-.948.582-.336.083-.684.124-1.044.124H3.567L3.23 14H2l1.266-6.318zM8.866 6h1.22l-.344 1.683h1.097c.602.012 1.05.135 1.345.37.3.235.39.68.265 1.34l-.592 2.933h-1.24l.567-2.8c.06-.295.04-.504-.054-.627-.093-.124-.296-.186-.61-.186l-.982-.01-.726 3.622H7.59L8.865 6zm4.897 1.682h2.373c.696.007 1.2.206 1.514.6.312.393.416.93.31 1.612-.042.312-.134.616-.275.916-.135.3-.324.57-.567.81-.295.306-.61.5-.947.582-.336.083-.684.124-1.044.124h-1.062L13.727 14h-1.23l1.266-6.318zm-9.46 1.005L3.77 11.33c.036.006.072.01.107.01H4c.567.005 1.04-.05 1.418-.17.377-.122.63-.55.76-1.284.107-.617 0-.973-.318-1.067-.313-.095-.705-.14-1.178-.133-.07.006-.138.01-.203.01h-.187l.01-.01zm10.496 0l-.533 2.643c.036.006.07.01.107.01h.124c.567.005 1.04-.05 1.416-.17.378-.122.632-.55.762-1.284.106-.617 0-.973-.32-1.067-.312-.095-.704-.14-1.177-.133-.07.006-.14.01-.204.01h-.186l.01-.01z" fill="#8892BF" fill-rule="evenodd"/></svg>
