<svg width="100%" height="100%" viewBox="0 0 20 20" version="1.1" xmlns="http://www.w3.org/2000/svg" xmlns:xlink="http://www.w3.org/1999/xlink" xml:space="preserve" style="fill-rule:evenodd;clip-rule:evenodd;stroke-linejoin:round;stroke-miterlimit:1.41421;"><g id="g6"><path id="path8" d="M1.583,9.103l2.966,0c0.87,0.008 1.501,0.257 1.892,0.749c0.391,0.492 0.52,1.164 0.387,2.016c-0.051,0.389 -0.166,0.77 -0.343,1.145c-0.169,0.374 -0.405,0.712 -0.708,1.013c-0.369,0.382 -0.764,0.624 -1.184,0.727c-0.421,0.103 -0.856,0.154 -1.306,0.154l-1.328,0l-0.421,2.093l-1.538,0l1.583,-7.897m1.294,1.256l-0.664,3.304c0.045,0.007 0.089,0.011 0.133,0.011l0.155,0c0.708,0.007 1.299,-0.063 1.771,-0.21c0.472,-0.154 0.789,-0.69 0.952,-1.607c0.132,-0.771 0,-1.216 -0.399,-1.333c-0.391,-0.118 -0.881,-0.173 -1.472,-0.165c-0.088,0.007 -0.173,0.011 -0.254,0.011c-0.074,0 -0.151,0 -0.233,0l0.011,-0.011" style="fill:#8892bf;fill-rule:nonzero;"/><path id="path10" d="M8.581,7l1.527,0l-0.431,2.104l1.372,0c0.753,0.015 1.313,0.169 1.682,0.462c0.377,0.294 0.487,0.852 0.332,1.674l-0.741,3.668l-1.549,0l0.708,-3.502c0.074,-0.367 0.051,-0.628 -0.067,-0.782c-0.118,-0.154 -0.372,-0.232 -0.763,-0.232l-1.229,-0.011l-0.907,4.527l-1.527,0l1.593,-7.908" style="fill:#8892bf;fill-rule:nonzero;"/><path id="path12" d="M14.704,9.103l2.966,0c0.87,0.008 1.501,0.257 1.892,0.749c0.391,0.492 0.52,1.164 0.387,2.016c-0.051,0.389 -0.166,0.77 -0.343,1.145c-0.169,0.374 -0.405,0.712 -0.708,1.013c-0.369,0.382 -0.764,0.624 -1.184,0.727c-0.421,0.103 -0.856,0.154 -1.306,0.154l-1.328,0l-0.421,2.093l-1.538,0l1.583,-7.897m1.295,1.256l-0.665,3.304c0.045,0.007 0.089,0.011 0.133,0.011l0.155,0c0.709,0.007 1.299,-0.063 1.771,-0.21c0.472,-0.154 0.789,-0.69 0.952,-1.607c0.133,-0.771 0,-1.216 -0.399,-1.333c-0.391,-0.118 -0.881,-0.173 -1.472,-0.165c-0.088,0.007 -0.173,0.011 -0.254,0.011c-0.074,0 -0.151,0 -0.233,0l0.012,-0.011" style="fill:#8892bf;fill-rule:nonzero;"/></g></svg>