<svg width="20" height="20" viewBox="0 0 20 20" xmlns="http://www.w3.org/2000/svg"><title>rss</title><path d="M1.124.002c-.303-.016-.57.08-.79.29C.112.502 0 .762 0 1.07v1.427c0 .566.435 1.033 1 1.068C9.3 4.065 15.936 10.702 16.436 19c.035.565.505 1.006 1.074 1h1.42c.307 0 .57-.112.778-.334.21-.218.306-.49.29-.796C19.432 8.706 11.29.568 1.124.002zm.03 6.28c-.31-.025-.587.067-.814.28-.228.21-.34.476-.34.79v1.426C0 9.33.416 9.79.97 9.84c4.863.46 8.737 4.327 9.196 9.19.05.554.51.976 1.062.976h1.427c.313 0 .58-.118.79-.346.21-.227.304-.505.278-.815C13.167 12.163 7.84 6.84 1.155 6.283zM2.93 14.14c-1.62 0-2.93 1.314-2.928 2.932 0 1.62 1.31 2.932 2.928 2.934.778 0 1.524-.308 2.075-.858.55-.55.86-1.297.858-2.076.002-.778-.307-1.524-.857-2.075-.55-.55-1.297-.86-2.075-.858z" fill="#4D4D4D" fill-rule="evenodd"/></svg>
