<svg width="20" height="20" viewBox="0 0 20 20" xmlns="http://www.w3.org/2000/svg"><title>twitter</title><path d="M20 3.93c-.567.828-1.252 1.534-2.056 2.118.01.12.013.296.013.533 0 1.1-.16 2.2-.482 3.294-.322 1.096-.81 2.147-1.466 3.154-.657 1.007-1.437 1.897-2.342 2.67-.906.775-1.997 1.393-3.275 1.854-1.277.46-2.643.692-4.1.692-2.29 0-4.39-.614-6.293-1.84.296.033.626.05.99.05 1.903 0 3.6-.583 5.09-1.75-.89-.018-1.685-.29-2.387-.82-.702-.528-1.185-1.203-1.447-2.024.28.043.537.064.774.064.364 0 .724-.047 1.08-.14-.95-.194-1.733-.666-2.355-1.415-.622-.75-.933-1.62-.933-2.61v-.05c.575.322 1.193.496 1.853.52-.558-.37-1.003-.858-1.333-1.458-.33-.6-.494-1.253-.494-1.955 0-.744.186-1.434.558-2.068 1.024 1.26 2.27 2.268 3.737 3.025 1.468.758 3.04 1.178 4.715 1.263-.068-.32-.102-.634-.102-.94 0-1.133.4-2.1 1.2-2.9C11.745 2.4 12.71 2 13.845 2c1.184 0 2.182.43 2.994 1.294.922-.177 1.79-.507 2.602-.99-.313.973-.914 1.726-1.802 2.26.786-.085 1.573-.297 2.36-.635z" fill="#4D4D4D" fill-rule="evenodd"/></svg>
