<svg width="100%" height="100%" viewBox="0 0 20 20" version="1.1" xmlns="http://www.w3.org/2000/svg" xmlns:xlink="http://www.w3.org/1999/xlink" xml:space="preserve" style="fill-rule:evenodd;clip-rule:evenodd;stroke-linejoin:round;stroke-miterlimit:1.41421;"><path d="M0,10l0,10l20,0l0,-20l-10,0l-10,0l0,10Zm16.117,-0.797c0.508,0.127 0.896,0.353 1.251,0.721c0.184,0.197 0.457,0.555 0.48,0.641c0.006,0.025 -0.864,0.61 -1.391,0.937c-0.019,0.012 -0.095,-0.07 -0.181,-0.197c-0.257,-0.375 -0.527,-0.537 -0.939,-0.565c-0.607,-0.042 -0.997,0.276 -0.994,0.806c0,0.156 0.022,0.248 0.086,0.375c0.133,0.276 0.381,0.441 1.158,0.777c1.432,0.616 2.045,1.023 2.426,1.6c0.425,0.645 0.52,1.673 0.231,2.439c-0.317,0.831 -1.104,1.396 -2.212,1.584c-0.343,0.06 -1.156,0.05 -1.524,-0.016c-0.803,-0.143 -1.565,-0.54 -2.035,-1.061c-0.184,-0.203 -0.543,-0.733 -0.521,-0.771c0.01,-0.013 0.092,-0.063 0.185,-0.117c0.088,-0.051 0.425,-0.245 0.742,-0.429l0.575,-0.333l0.121,0.177c0.168,0.258 0.536,0.61 0.758,0.727c0.638,0.337 1.515,0.289 1.946,-0.098c0.184,-0.168 0.261,-0.343 0.261,-0.6c0,-0.232 -0.029,-0.333 -0.15,-0.508c-0.155,-0.222 -0.473,-0.409 -1.374,-0.8c-1.032,-0.444 -1.476,-0.721 -1.883,-1.159c-0.235,-0.254 -0.457,-0.66 -0.549,-1c-0.076,-0.282 -0.095,-0.99 -0.035,-1.276c0.213,-0.997 0.965,-1.692 2.051,-1.898c0.352,-0.067 1.171,-0.042 1.517,0.044Zm-4.695,0.835l0.007,0.819l-1.302,0l-1.302,0l0,3.699l0,3.698l-0.92,0l-0.921,0l0,-7.397l-1.301,0l-1.302,0l0,-0.803c0,-0.444 0.009,-0.816 0.022,-0.825c0.01,-0.013 1.594,-0.019 3.514,-0.016l3.496,0.009l0.009,0.816Z" style="fill:#007acc;fill-rule:nonzero;"/></svg>