<svg width="20" height="20" viewBox="0 0 20 20" xmlns="http://www.w3.org/2000/svg"><title>typescript</title><path d="M0 10v10h20V0H0v10zm16.117-.797c.508.127.896.353 1.25.72.185.198.458.556.48.642.007.025-.863.61-1.39.937-.02.012-.095-.07-.18-.197-.258-.375-.528-.537-.94-.565-.607-.042-.997.276-.994.806 0 .156.022.248.086.375.132.277.38.442 1.157.778 1.432.616 2.045 1.023 2.426 1.6.425.645.52 1.673.23 2.44-.316.83-1.103 1.395-2.21 1.583-.344.06-1.157.05-1.525-.015-.803-.143-1.565-.54-2.035-1.06-.184-.204-.543-.734-.52-.772.01-.013.09-.063.184-.117.088-.05.425-.245.742-.43l.574-.332.12.177c.17.26.537.61.76.728.637.337 1.514.29 1.945-.098.183-.168.26-.343.26-.6 0-.232-.03-.333-.15-.508-.155-.222-.473-.41-1.374-.8-1.032-.444-1.476-.72-1.883-1.16-.235-.253-.457-.66-.55-1-.075-.28-.094-.99-.034-1.275.212-.997.964-1.692 2.05-1.898.352-.068 1.17-.043 1.517.043zm-4.695.835l.007.82H8.824v7.396h-1.84v-7.397H4.38v-.803c0-.444.01-.816.023-.825.01-.014 1.594-.02 3.514-.017l3.496.01.01.815z" fill="#007ACC" fill-rule="evenodd"/></svg>
